<?xml version="1.0" encoding="utf-8"?>
<!-- Generator: Adobe Illustrator 23.0.3, SVG Export Plug-In . SVG Version: 6.00 Build 0)  -->
<svg version="1.1" id="Warstwa_1" xmlns="http://www.w3.org/2000/svg" xmlns:xlink="http://www.w3.org/1999/xlink" x="0px" y="0px"
	 viewBox="0 0 305.24 139.4" style="enable-background:new 0 0 305.24 139.4;" xml:space="preserve">
<style type="text/css">
	.st0{fill:#969324;}
	.st1{fill:#686754;}
	.st2{fill:#010202;}
</style>
<g>
	<path class="st2" d="M95.7,9.19v17.62c0,4.37-3.54,7.91-7.91,7.91H43.36c-4.37,0-7.91,3.54-7.91,7.91v59.23
		c0,4.37,3.54,7.91,7.91,7.91h44.43c4.37,0,7.91-3.54,7.91-7.91V91.15c0-4.37-3.54-7.91-7.91-7.91H77.57
		c-4.37,0-7.91-3.54-7.91-7.91v0c0-4.37,3.54-7.91,7.91-7.91h26.55c4.37,0,7.91,3.54,7.91,7.91v45.45c0,4.37-3.54,7.91-7.91,7.91
		H21.15L95.7,9.19z"/>
	<polygon class="st2" points="79.77,34.72 95.7,9.19 95.7,34.72 	"/>
</g>
<g>
	<path class="st2" d="M142.57,83.58h-4.47v-3.06h8.12v10.06c-0.3,0.11-0.68,0.22-1.14,0.34c-0.46,0.12-0.98,0.23-1.55,0.32
		s-1.16,0.17-1.77,0.23c-0.61,0.06-1.21,0.09-1.8,0.09c-1.79,0-3.35-0.24-4.69-0.72c-1.34-0.48-2.45-1.16-3.34-2.03
		c-0.89-0.87-1.55-1.92-2-3.12c-0.44-1.21-0.66-2.54-0.66-4c0-1.03,0.12-2.02,0.35-2.96s0.58-1.81,1.03-2.61s1-1.52,1.65-2.17
		s1.38-1.2,2.21-1.65c0.83-0.46,1.74-0.81,2.73-1.05c0.99-0.24,2.05-0.37,3.18-0.37c1,0,1.96,0.07,2.86,0.22s1.64,0.32,2.22,0.53
		v3.1c-0.78-0.25-1.56-0.44-2.35-0.57c-0.79-0.13-1.59-0.19-2.39-0.19c-1.08,0-2.1,0.16-3.04,0.48c-0.94,0.32-1.76,0.8-2.45,1.43
		c-0.69,0.63-1.24,1.41-1.63,2.33s-0.6,1.99-0.6,3.2c0.01,2.35,0.63,4.12,1.85,5.3c1.22,1.18,2.96,1.77,5.2,1.77
		c0.42,0,0.85-0.02,1.3-0.07c0.45-0.04,0.84-0.1,1.18-0.17V83.58z"/>
	<path class="st2" d="M154.34,71.25v16.89h9.33v3.06h-12.98V71.25H154.34z"/>
	<path class="st2" d="M178.51,86.11h-7.51l-1.95,5.08h-3.89l7.91-19.94h3.34l7.91,19.94h-3.86L178.51,86.11z M174.73,76.05
		c-0.7,2.09-1.32,3.83-1.87,5.23l-0.68,1.77h5.15l-0.68-1.77c-0.54-1.41-1.16-3.16-1.87-5.23H174.73z"/>
	<path class="st2" d="M196.97,85.47c0-0.51-0.12-0.92-0.37-1.23c-0.25-0.31-0.59-0.57-1.01-0.77c-0.43-0.2-0.91-0.36-1.44-0.48
		c-0.53-0.12-1.09-0.25-1.68-0.37c-0.78-0.17-1.52-0.37-2.22-0.6c-0.71-0.23-1.33-0.56-1.86-0.97c-0.54-0.41-0.96-0.94-1.28-1.57
		c-0.32-0.64-0.48-1.43-0.48-2.38c0-1.05,0.18-1.97,0.55-2.75c0.37-0.78,0.87-1.43,1.5-1.94c0.63-0.51,1.37-0.89,2.22-1.15
		c0.85-0.25,1.8-0.38,2.87-0.38s2.13,0.1,3.2,0.31c1.07,0.21,2,0.48,2.77,0.8v3.13c-1.03-0.41-2.02-0.7-2.97-0.89
		c-0.95-0.18-1.84-0.28-2.67-0.28c-1.2,0-2.13,0.22-2.78,0.66c-0.65,0.44-0.98,1.09-0.98,1.97c0,0.51,0.11,0.92,0.32,1.25
		c0.21,0.33,0.5,0.6,0.87,0.81c0.37,0.21,0.79,0.39,1.27,0.51c0.48,0.13,0.98,0.25,1.52,0.36c0.84,0.18,1.65,0.39,2.42,0.62
		c0.77,0.23,1.45,0.56,2.05,0.98c0.6,0.42,1.07,0.96,1.42,1.63c0.35,0.67,0.52,1.53,0.52,2.57c0,1.07-0.2,2-0.6,2.79
		c-0.4,0.79-0.96,1.43-1.69,1.94c-0.73,0.51-1.62,0.89-2.66,1.14c-1.04,0.25-2.19,0.37-3.43,0.37c-1.08,0-2.15-0.11-3.2-0.32
		s-1.92-0.51-2.62-0.9v-3.08c0.98,0.43,1.94,0.74,2.88,0.93s1.9,0.29,2.89,0.29c0.58,0,1.14-0.05,1.7-0.14
		c0.56-0.09,1.06-0.26,1.5-0.48c0.44-0.23,0.8-0.54,1.07-0.93C196.83,86.53,196.97,86.05,196.97,85.47z"/>
	<path class="st2" d="M214.58,85.47c0-0.51-0.12-0.92-0.37-1.23c-0.25-0.31-0.59-0.57-1.01-0.77c-0.43-0.2-0.91-0.36-1.44-0.48
		c-0.53-0.12-1.09-0.25-1.68-0.37c-0.78-0.17-1.52-0.37-2.22-0.6c-0.71-0.23-1.33-0.56-1.86-0.97c-0.54-0.41-0.96-0.94-1.28-1.57
		c-0.32-0.64-0.48-1.43-0.48-2.38c0-1.05,0.18-1.97,0.55-2.75c0.37-0.78,0.87-1.43,1.5-1.94c0.63-0.51,1.37-0.89,2.22-1.15
		c0.85-0.25,1.8-0.38,2.87-0.38s2.13,0.1,3.2,0.31c1.07,0.21,2,0.48,2.77,0.8v3.13c-1.03-0.41-2.02-0.7-2.97-0.89
		c-0.95-0.18-1.84-0.28-2.67-0.28c-1.2,0-2.13,0.22-2.78,0.66c-0.65,0.44-0.98,1.09-0.98,1.97c0,0.51,0.11,0.92,0.32,1.25
		c0.21,0.33,0.5,0.6,0.87,0.81c0.37,0.21,0.79,0.39,1.27,0.51c0.48,0.13,0.98,0.25,1.52,0.36c0.84,0.18,1.65,0.39,2.42,0.62
		c0.77,0.23,1.45,0.56,2.05,0.98c0.6,0.42,1.07,0.96,1.42,1.63c0.35,0.67,0.52,1.53,0.52,2.57c0,1.07-0.2,2-0.6,2.79
		c-0.4,0.79-0.96,1.43-1.69,1.94c-0.73,0.51-1.62,0.89-2.66,1.14c-1.04,0.25-2.19,0.37-3.43,0.37c-1.08,0-2.15-0.11-3.2-0.32
		s-1.92-0.51-2.62-0.9v-3.08c0.98,0.43,1.94,0.74,2.88,0.93s1.9,0.29,2.89,0.29c0.58,0,1.14-0.05,1.7-0.14
		c0.56-0.09,1.06-0.26,1.5-0.48c0.44-0.23,0.8-0.54,1.07-0.93C214.45,86.53,214.58,86.05,214.58,85.47z"/>
	<path class="st2" d="M237.19,73.97c-0.99,0-1.91,0.16-2.75,0.49c-0.84,0.33-1.56,0.81-2.16,1.43c-0.6,0.63-1.07,1.4-1.41,2.32
		s-0.51,1.97-0.51,3.15c0,1.17,0.15,2.2,0.46,3.09s0.75,1.63,1.33,2.23s1.28,1.05,2.11,1.35c0.83,0.3,1.77,0.45,2.82,0.45
		c0.75,0,1.52-0.06,2.31-0.18s1.52-0.29,2.21-0.52v3.14c-0.7,0.2-1.45,0.35-2.25,0.47s-1.64,0.17-2.5,0.17
		c-1.69,0-3.17-0.24-4.46-0.72c-1.28-0.48-2.35-1.16-3.21-2.04c-0.86-0.88-1.51-1.93-1.94-3.16c-0.43-1.23-0.65-2.58-0.65-4.06
		c0-1.52,0.23-2.93,0.69-4.23c0.46-1.3,1.13-2.43,2-3.38c0.87-0.95,1.96-1.7,3.26-2.25c1.31-0.55,2.78-0.82,4.43-0.83
		c0.84,0,1.64,0.06,2.4,0.17c0.75,0.11,1.44,0.28,2.04,0.48v3.1c-0.79-0.25-1.53-0.42-2.22-0.52
		C238.52,74.02,237.84,73.97,237.19,73.97z"/>
	<path class="st2" d="M245.33,91.19V71.25h3.65v19.94H245.33z"/>
	<path class="st2" d="M261.9,91.19h-3.65V74.31h-6.44v-3.06h16.51v3.06h-6.42V91.19z"/>
	<path class="st2" d="M278.47,79.84l5.31-8.58h4.05l-7.56,11.91v8.03h-3.65v-8.03l-7.56-11.91h4.05l5.31,8.58H278.47z"/>
	<path class="st2" d="M139.98,122.1c0-0.51-0.12-0.92-0.37-1.23c-0.25-0.31-0.59-0.57-1.01-0.77c-0.43-0.2-0.91-0.36-1.44-0.48
		c-0.53-0.12-1.09-0.25-1.68-0.37c-0.78-0.17-1.52-0.37-2.22-0.6c-0.71-0.23-1.33-0.56-1.86-0.97c-0.54-0.41-0.96-0.94-1.28-1.57
		c-0.32-0.64-0.48-1.43-0.48-2.38c0-1.05,0.18-1.97,0.55-2.75c0.37-0.78,0.87-1.43,1.5-1.94c0.63-0.51,1.37-0.89,2.22-1.15
		c0.85-0.25,1.8-0.38,2.87-0.38s2.13,0.1,3.2,0.31c1.07,0.21,2,0.48,2.77,0.8v3.13c-1.03-0.41-2.02-0.7-2.97-0.89
		c-0.95-0.18-1.84-0.28-2.67-0.28c-1.2,0-2.13,0.22-2.78,0.66c-0.65,0.44-0.98,1.09-0.98,1.97c0,0.51,0.11,0.92,0.32,1.25
		c0.21,0.33,0.5,0.6,0.87,0.81c0.37,0.21,0.79,0.39,1.27,0.51c0.48,0.13,0.98,0.25,1.52,0.36c0.84,0.18,1.65,0.39,2.42,0.62
		c0.77,0.23,1.45,0.56,2.05,0.98c0.6,0.42,1.07,0.96,1.42,1.63c0.35,0.67,0.52,1.53,0.52,2.57c0,1.07-0.2,2-0.6,2.79
		c-0.4,0.79-0.96,1.43-1.69,1.94c-0.73,0.51-1.62,0.89-2.66,1.14c-1.04,0.25-2.19,0.37-3.43,0.37c-1.08,0-2.15-0.11-3.2-0.32
		c-1.05-0.21-1.92-0.51-2.62-0.9v-3.08c0.98,0.43,1.94,0.74,2.88,0.93s1.9,0.29,2.89,0.29c0.58,0,1.14-0.05,1.7-0.14
		c0.56-0.09,1.06-0.26,1.5-0.48c0.44-0.23,0.8-0.54,1.07-0.93C139.84,123.16,139.98,122.67,139.98,122.1z"/>
	<path class="st2" d="M155.94,127.82h-3.65v-16.89h-6.44v-3.06h16.51v3.06h-6.42V127.82z"/>
	<path class="st2" d="M173.45,128.19c-1.04,0-1.98-0.1-2.82-0.31c-0.83-0.2-1.57-0.5-2.21-0.88s-1.18-0.85-1.62-1.4
		c-0.45-0.55-0.8-1.17-1.07-1.87c-0.22-0.56-0.38-1.17-0.47-1.85c-0.09-0.68-0.14-1.43-0.14-2.27v-11.74h3.65v11.42
		c0,1.41,0.17,2.51,0.51,3.31c0.38,0.88,0.93,1.52,1.65,1.92s1.58,0.59,2.56,0.59s1.84-0.2,2.56-0.59c0.72-0.39,1.28-1.03,1.65-1.92
		c0.34-0.79,0.51-1.9,0.51-3.31v-11.42h3.65v11.74c0,0.83-0.05,1.59-0.14,2.27c-0.09,0.68-0.25,1.29-0.47,1.85
		c-0.27,0.7-0.63,1.32-1.08,1.87c-0.45,0.55-1,1.02-1.65,1.4c-0.65,0.38-1.4,0.68-2.24,0.88
		C175.44,128.09,174.49,128.19,173.45,128.19z"/>
	<path class="st2" d="M186.56,127.82v-19.94h5.28c0.47,0,0.94,0.02,1.42,0.04c0.48,0.03,0.95,0.07,1.41,0.13
		c0.46,0.06,0.9,0.13,1.33,0.22c0.43,0.08,0.82,0.19,1.18,0.31c1.06,0.34,2,0.79,2.82,1.37c0.81,0.58,1.5,1.26,2.05,2.04
		c0.55,0.79,0.97,1.66,1.25,2.63s0.42,2.02,0.42,3.15c0,1.07-0.12,2.08-0.36,3.02c-0.24,0.94-0.6,1.8-1.09,2.57
		c-0.49,0.77-1.1,1.46-1.84,2.05s-1.62,1.08-2.63,1.45c-0.84,0.32-1.8,0.56-2.88,0.72c-1.07,0.16-2.28,0.24-3.62,0.24H186.56z
		 M191.72,124.76c2.14,0,3.8-0.29,5.01-0.88c1.06-0.53,1.87-1.29,2.41-2.29c0.55-1,0.82-2.29,0.82-3.84c0-0.81-0.09-1.55-0.27-2.21
		c-0.18-0.66-0.44-1.24-0.77-1.75s-0.75-0.95-1.23-1.32c-0.48-0.37-1.03-0.67-1.63-0.91c-0.57-0.22-1.2-0.38-1.89-0.48
		c-0.7-0.1-1.48-0.15-2.34-0.15h-1.61v13.83H191.72z"/>
	<path class="st2" d="M207.59,127.82v-19.94h3.65v19.94H207.59z"/>
	<path class="st2" d="M234.55,117.85c0,1.52-0.22,2.91-0.65,4.18c-0.43,1.27-1.06,2.36-1.89,3.27c-0.83,0.91-1.85,1.62-3.05,2.13
		c-1.21,0.51-2.58,0.76-4.12,0.76s-2.91-0.25-4.12-0.76c-1.21-0.51-2.23-1.22-3.05-2.13c-0.83-0.91-1.46-2-1.89-3.27
		c-0.43-1.27-0.65-2.66-0.65-4.18s0.22-2.91,0.65-4.18c0.43-1.27,1.06-2.36,1.89-3.27c0.83-0.91,1.85-1.62,3.05-2.13
		c1.21-0.51,2.58-0.76,4.12-0.76s2.91,0.25,4.12,0.76s2.22,1.22,3.05,2.13c0.83,0.91,1.46,2,1.89,3.27
		C234.34,114.94,234.55,116.33,234.55,117.85z M230.78,117.85c0-1.21-0.15-2.27-0.45-3.18s-0.71-1.67-1.24-2.27
		c-0.53-0.61-1.15-1.06-1.88-1.36c-0.73-0.3-1.52-0.45-2.38-0.45s-1.66,0.15-2.38,0.45c-0.72,0.3-1.35,0.75-1.88,1.36
		c-0.53,0.61-0.94,1.36-1.24,2.27s-0.45,1.97-0.45,3.18c0,1.21,0.15,2.27,0.45,3.18c0.3,0.91,0.71,1.66,1.24,2.27
		c0.53,0.6,1.15,1.05,1.88,1.36c0.73,0.3,1.52,0.45,2.38,0.45s1.66-0.15,2.38-0.45c0.72-0.3,1.35-0.75,1.88-1.36
		c0.53-0.6,0.94-1.36,1.24-2.27C230.63,120.12,230.78,119.06,230.78,117.85z"/>
</g>
</svg>
